0
SECTION
2
HEADER
9
$INSUNITS
70
4
9
$ACADVER
1
AC1014
9
$HANDSEED
5
FFFF
0
ENDSEC
0
SECTION
2
TABLES
0
TABLE
2
VPORT
5
8
100
AcDbSymbolTable
0
ENDTAB
0
TABLE
2
LTYPE
5
5
100
AcDbSymbolTable
0
LTYPE
5
14
100
AcDbSymbolTableRecord
100
AcDbLinetypeTableRecord
2
BYBLOCK
70
0
0
LTYPE
5
15
100
AcDbSymbolTableRecord
100
AcDbLinetypeTableRecord
2
BYLAYER
70
0
0
LTYPE
5
16
100
AcDbSymbolTableRecord
100
AcDbLinetypeTableRecord
2
DASHED
70
0
3
Dashed __ __ __ __ __ __ __ __ __ __ __ __ __ _
72
65
73
2
40
0.75
49
0.5
74
0
49
-0.25
74
0
0
ENDTAB
0
TABLE
2
LAYER
5
2
100
AcDbSymbolTable
70
2
0
LAYER
5
50
100
AcDbSymbolTableRecord
100
AcDbLayerTableRecord
2
0
70
0
62
7
6
CONTINUOUS
0
ENDTAB
0
TABLE
2
STYLE
5
3
100
AcDbSymbolTable
70
1
0
STYLE
5
11
100
AcDbSymbolTableRecord
100
AcDbTextStyleTableRecord
2
STANDARD
70
0
0
ENDTAB
0
TABLE
2
VIEW
5
6
100
AcDbSymbolTable
70
0
0
ENDTAB
0
TABLE
2
UCS
5
7
100
AcDbSymbolTable
70
0
0
ENDTAB
0
TABLE
2
APPID
5
9
100
AcDbSymbolTable
70
2
0
APPID
5
12
100
AcDbSymbolTableRecord
100
AcDbRegAppTableRecord
2
ACAD
70
0
0
ENDTAB
0
TABLE
2
DIMSTYLE
5
A
100
AcDbSymbolTable
70
1
0
ENDTAB
0
TABLE
2
BLOCK_RECORD
5
1
100
AcDbSymbolTable
70
1
0
BLOCK_RECORD
5
1F
100
AcDbSymbolTableRecord
100
AcDbBlockTableRecord
2
*MODEL_SPACE
0
BLOCK_RECORD
5
1B
100
AcDbSymbolTableRecord
100
AcDbBlockTableRecord
2
*PAPER_SPACE
0
ENDTAB
0
ENDSEC
0
SECTION
2
BLOCKS
0
BLOCK
5
20
100
AcDbEntity
100
AcDbBlockBegin
2
*MODEL_SPACE
0
ENDBLK
5
21
100
AcDbEntity
100
AcDbBlockEnd
0
BLOCK
5
1C
100
AcDbEntity
100
AcDbBlockBegin
2
*PAPER_SPACE
0
ENDBLK
5
1D
100
AcDbEntity
100
AcDbBlockEnd
0
ENDSEC
0
SECTION
2
ENTITIES
0
POINT
5
100
100
AcDbEntity
8
0
100
AcDbPoint
10
260.24711809857018
20
200.22887472659377
30
0
0
POINT
5
101
100
AcDbEntity
8
0
100
AcDbPoint
10
320.24711809857024
20
200.22887472659377
30
0
0
POINT
5
102
100
AcDbEntity
8
0
100
AcDbPoint
10
200.24711809857021
20
200.22887472659377
30
0
0
POINT
5
103
100
AcDbEntity
8
0
100
AcDbPoint
10
290.24711809857018
20
200.22887472659377
30
0
0
POINT
5
104
100
AcDbEntity
8
0
100
AcDbPoint
10
59.339356580775373
20
18.01641181983765
30
0
0
POINT
5
105
100
AcDbEntity
8
0
100
AcDbPoint
10
59.339356580775373
20
18.01641181983765
30
0
0
POINT
5
106
100
AcDbEntity
8
0
100
AcDbPoint
10
89.33935658077533
20
-132.80377294393776
30
0
0
POINT
5
107
100
AcDbEntity
8
0
100
AcDbPoint
10
59.339356580775373
20
18.01641181983765
30
0
0
POINT
5
108
100
AcDbEntity
8
0
100
AcDbPoint
10
10.409767169840318
20
-100.11006653738863
30
0
0
POINT
5
109
100
AcDbEntity
8
0
100
AcDbPoint
10
59.339356580775338
20
-132.80377294393782
30
0
0
POINT
5
110
100
AcDbEntity
8
0
100
AcDbPoint
10
-1.070735801112388
20
-72.393680562050037
30
0
0
POINT
5
111
100
AcDbEntity
8
0
100
AcDbPoint
10
31.622970605436755
20
-121.32326997298509
30
0
0
POINT
5
112
100
AcDbEntity
8
0
100
AcDbPoint
10
59.339356580775373
20
18.01641181983765
30
0
0
POINT
5
113
100
AcDbEntity
8
0
100
AcDbPoint
10
31.622970605436755
20
6.5359088488849633
30
0
0
POINT
5
114
100
AcDbEntity
8
0
100
AcDbPoint
10
59.339356580775373
20
-42.393680562050058
30
0
0
POINT
5
115
100
AcDbEntity
8
0
100
AcDbPoint
10
82.457298082968308
20
-37.795236088904417
30
0
0
POINT
5
116
100
AcDbEntity
8
0
100
AcDbPoint
10
59.339356580775373
20
18.01641181983765
30
0
0
POINT
5
117
100
AcDbEntity
8
0
100
AcDbPoint
10
59.202659120146102
20
-112.66707548330855
30
0
0
POINT
5
118
100
AcDbEntity
8
0
100
AcDbPoint
10
59.339356580775373
20
18.01641181983765
30
0
0
POINT
5
119
100
AcDbEntity
8
0
100
AcDbPoint
10
10.409767169840318
20
-100.11006653738863
30
0
0
POINT
5
120
100
AcDbEntity
8
0
100
AcDbPoint
10
59.339356580775373
20
18.01641181983765
30
0
0
POINT
5
121
100
AcDbEntity
8
0
100
AcDbPoint
10
82.457298082968308
20
-37.795236088904417
30
0
0
POINT
5
122
100
AcDbEntity
8
0
100
AcDbPoint
10
59.339356580775373
20
18.01641181983765
30
0
0
POINT
5
123
100
AcDbEntity
8
0
100
AcDbPoint
10
89.476054041404609
20
-2.120285640791586
30
0
0
POINT
5
124
100
AcDbEntity
8
0
100
AcDbPoint
10
320.24711809857024
20
200.22887472659377
30
0
0
POINT
5
125
100
AcDbEntity
8
0
100
AcDbPoint
10
82.457298082968308
20
-37.795236088904417
30
0
0
POINT
5
126
100
AcDbEntity
8
0
100
AcDbPoint
10
39.202659120146123
20
-12.120285640791582
30
0
0
POINT
5
127
100
AcDbEntity
8
0
100
AcDbPoint
10
59.339356580775373
20
-42.393680562050058
30
0
0
POINT
5
128
100
AcDbEntity
8
0
100
AcDbPoint
10
59.339356580775373
20
18.01641181983765
30
0
0
POINT
5
129
100
AcDbEntity
8
0
100
AcDbPoint
10
59.339356580775338
20
-132.80377294393782
30
0
0
POINT
5
130
100
AcDbEntity
8
0
100
AcDbPoint
10
-1.070735801112388
20
-72.393680562050037
30
0
0
POINT
5
131
100
AcDbEntity
8
0
100
AcDbPoint
10
59.339356580775338
20
-132.80377294393782
30
0
0
POINT
5
132
100
AcDbEntity
8
0
100
AcDbPoint
10
59.339356580775373
20
-42.393680562050058
30
0
0
POINT
5
133
100
AcDbEntity
8
0
100
AcDbPoint
10
230.24711809857021
20
200.22887472659377
30
0
0
POINT
5
134
100
AcDbEntity
8
0
100
AcDbPoint
10
59.339356580775373
20
18.01641181983765
30
0
0
POINT
5
135
100
AcDbEntity
8
0
100
AcDbPoint
10
82.457298082968308
20
-37.795236088904417
30
0
0
POINT
5
136
100
AcDbEntity
8
0
100
AcDbPoint
10
59.339356580775373
20
-42.393680562050058
30
0
0
POINT
5
137
100
AcDbEntity
8
0
100
AcDbPoint
10
59.339356580775373
20
-42.393680562050058
30
0
0
POINT
5
138
100
AcDbEntity
8
0
100
AcDbPoint
10
82.457298082968308
20
-37.795236088904417
30
0
0
POINT
5
139
100
AcDbEntity
8
0
100
AcDbPoint
10
59.339356580775373
20
18.01641181983765
30
0
0
POINT
5
140
100
AcDbEntity
8
0
100
AcDbPoint
10
82.457298082968308
20
-37.795236088904417
30
0
0
POINT
5
141
100
AcDbEntity
8
0
100
AcDbPoint
10
-1.0707358011124057
20
-72.393680562050037
30
0
0
POINT
5
142
100
AcDbEntity
8
0
100
AcDbPoint
10
59.339356580775373
20
18.01641181983765
30
0
0
POINT
5
143
100
AcDbEntity
8
0
100
AcDbPoint
10
59.339356580775373
20
-42.393680562050058
30
0
0
POINT
5
144
100
AcDbEntity
8
0
100
AcDbPoint
10
8.4421180985702193
20
200.22887472659377
30
0
0
POINT
5
145
100
AcDbEntity
8
0
100
AcDbPoint
10
-21.557881901429834
20
200.22887472659377
30
0
0
POINT
5
146
100
AcDbEntity
8
0
100
AcDbPoint
10
98.442118098570219
20
200.22887472659377
30
0
0
POINT
5
147
100
AcDbEntity
8
0
100
AcDbPoint
10
38.442118098570219
20
200.22887472659377
30
0
0
POINT
5
148
100
AcDbEntity
8
0
100
AcDbPoint
10
-21.557881901429834
20
200.22887472659377
30
0
0
POINT
5
149
100
AcDbEntity
8
0
100
AcDbPoint
10
68.442118098570219
20
200.22887472659377
30
0
0
POINT
5
150
100
AcDbEntity
8
0
100
AcDbPoint
10
209.33935658077536
20
-42.393680562050058
30
0
0
POINT
5
151
100
AcDbEntity
8
0
100
AcDbPoint
10
189.20265912014614
20
-12.120285640791582
30
0
0
POINT
5
152
100
AcDbEntity
8
0
100
AcDbPoint
10
232.45729808296829
20
-37.795236088904417
30
0
0
POINT
5
153
100
AcDbEntity
8
0
100
AcDbPoint
10
239.47605404140461
20
-2.120285640791586
30
0
0
POINT
5
154
100
AcDbEntity
8
0
100
AcDbPoint
10
209.33935658077536
20
18.01641181983765
30
0
0
POINT
5
155
100
AcDbEntity
8
0
100
AcDbPoint
10
209.33935658077536
20
18.01641181983765
30
0
0
POINT
5
156
100
AcDbEntity
8
0
100
AcDbPoint
10
239.33935658077533
20
-132.80377294393776
30
0
0
POINT
5
157
100
AcDbEntity
8
0
100
AcDbPoint
10
209.33935658077536
20
18.01641181983765
30
0
0
POINT
5
158
100
AcDbEntity
8
0
100
AcDbPoint
10
160.40976716984034
20
-100.11006653738863
30
0
0
POINT
5
159
100
AcDbEntity
8
0
100
AcDbPoint
10
209.33935658077533
20
-132.80377294393782
30
0
0
POINT
5
160
100
AcDbEntity
8
0
100
AcDbPoint
10
148.92926419888761
20
-72.393680562050037
30
0
0
POINT
5
161
100
AcDbEntity
8
0
100
AcDbPoint
10
181.62297060543676
20
-121.32326997298509
30
0
0
POINT
5
162
100
AcDbEntity
8
0
100
AcDbPoint
10
209.33935658077536
20
18.01641181983765
30
0
0
POINT
5
163
100
AcDbEntity
8
0
100
AcDbPoint
10
181.62297060543676
20
6.5359088488849633
30
0
0
POINT
5
164
100
AcDbEntity
8
0
100
AcDbPoint
10
209.33935658077536
20
-42.393680562050058
30
0
0
POINT
5
165
100
AcDbEntity
8
0
100
AcDbPoint
10
232.45729808296829
20
-37.795236088904417
30
0
0
POINT
5
166
100
AcDbEntity
8
0
100
AcDbPoint
10
209.33935658077536
20
18.01641181983765
30
0
0
POINT
5
167
100
AcDbEntity
8
0
100
AcDbPoint
10
209.20265912014611
20
-112.66707548330855
30
0
0
POINT
5
168
100
AcDbEntity
8
0
100
AcDbPoint
10
209.33935658077536
20
18.01641181983765
30
0
0
POINT
5
169
100
AcDbEntity
8
0
100
AcDbPoint
10
160.40976716984034
20
-100.11006653738863
30
0
0
POINT
5
170
100
AcDbEntity
8
0
100
AcDbPoint
10
209.33935658077536
20
18.01641181983765
30
0
0
POINT
5
171
100
AcDbEntity
8
0
100
AcDbPoint
10
232.45729808296829
20
-37.795236088904417
30
0
0
POINT
5
172
100
AcDbEntity
8
0
100
AcDbPoint
10
209.33935658077536
20
18.01641181983765
30
0
0
POINT
5
173
100
AcDbEntity
8
0
100
AcDbPoint
10
232.45729808296829
20
-37.795236088904417
30
0
0
POINT
5
174
100
AcDbEntity
8
0
100
AcDbPoint
10
209.33935658077536
20
18.01641181983765
30
0
0
POINT
5
175
100
AcDbEntity
8
0
100
AcDbPoint
10
232.45729808296829
20
-37.795236088904417
30
0
0
POINT
5
176
100
AcDbEntity
8
0
100
AcDbPoint
10
148.92926419888761
20
-72.393680562050037
30
0
0
POINT
5
177
100
AcDbEntity
8
0
100
AcDbPoint
10
209.33935658077536
20
18.01641181983765
30
0
0
POINT
5
178
100
AcDbEntity
8
0
100
AcDbPoint
10
209.33935658077536
20
-42.393680562050058
30
0
0
POINT
5
179
100
AcDbEntity
8
0
100
AcDbPoint
10
209.33935658077536
20
-42.393680562050058
30
0
0
POINT
5
180
100
AcDbEntity
8
0
100
AcDbPoint
10
209.33935658077536
20
18.01641181983765
30
0
0
POINT
5
181
100
AcDbEntity
8
0
100
AcDbPoint
10
209.33935658077536
20
18.01641181983765
30
0
0
POINT
5
182
100
AcDbEntity
8
0
100
AcDbPoint
10
232.45729808296829
20
-37.795236088904417
30
0
0
POINT
5
183
100
AcDbEntity
8
0
100
AcDbPoint
10
209.33935658077536
20
-42.393680562050058
30
0
0
POINT
5
184
100
AcDbEntity
8
0
100
AcDbPoint
10
209.33935658077536
20
-42.393680562050058
30
0
0
POINT
5
185
100
AcDbEntity
8
0
100
AcDbPoint
10
209.33935658077533
20
-132.80377294393782
30
0
0
POINT
5
186
100
AcDbEntity
8
0
100
AcDbPoint
10
148.92926419888761
20
-72.393680562050037
30
0
0
POINT
5
187
100
AcDbEntity
8
0
100
AcDbPoint
10
209.33935658077533
20
-132.80377294393782
30
0
0
POINT
5
188
100
AcDbEntity
8
0
100
AcDbPoint
10
150
20
0
30
0
0
LINE
5
189
100
AcDbEntity
8
0
100
AcDbLine
10
89.339356580775359
20
-132.80377294393782
30
0
11
74.339356580775345
21
-132.80377294393782
31
0
0
LINE
5
190
100
AcDbEntity
8
0
100
AcDbLine
10
74.339356580775345
20
-132.80377294393782
30
0
11
74.339356580775345
21
-136.80377294393779
31
0
0
LINE
5
191
100
AcDbEntity
8
0
100
AcDbLine
10
104.72828329790501
20
-130.75903958850657
30
0
11
89.339356580775359
21
-136.80377294393776
31
0
0
LINE
5
192
100
AcDbEntity
8
0
100
AcDbLine
10
74.339356580775359
20
-132.80377294393776
30
0
11
74.339356580775359
21
-136.80377294393776
31
0
0
LINE
5
193
100
AcDbEntity
8
0
100
AcDbLine
10
103.19754956844464
20
-127.06352145846142
30
0
11
104.72828329790501
21
-130.75903958850657
31
0
0
LINE
5
194
100
AcDbEntity
8
0
100
AcDbLine
10
10.4097671698403
20
-100.11006653738868
30
0
11
6.7142490397951704
21
-101.64080026684903
31
0
0
LINE
5
195
100
AcDbEntity
8
0
100
AcDbLine
10
18.187941762892343
20
-113.54509537993307
30
0
11
6.7142490397951704
21
-101.64080026684903
31
0
0
LINE
5
196
100
AcDbEntity
8
0
100
AcDbLine
10
59.339356580775338
20
-132.80377294393776
30
0
11
89.339356580775359
21
-132.80377294393776
31
0
6
DASHED
0
LINE
5
197
100
AcDbEntity
8
0
100
AcDbLine
10
45.481163593106061
20
12.276160334361306
30
0
11
43.950429863645709
21
15.971678464406454
31
0
0
LINE
5
198
100
AcDbEntity
8
0
100
AcDbLine
10
10.4097671698403
20
-100.11006653738868
30
0
11
4.6695156843639296
21
-86.251873549719349
31
0
0
LINE
5
199
100
AcDbEntity
8
0
100
AcDbLine
10
59.339356580775373
20
18.01641181983765
30
0
11
31.622970605436755
21
6.5359088488849615
31
0
6
DASHED
0
LINE
5
200
100
AcDbEntity
8
0
100
AcDbLine
10
43.950429863645709
20
15.971678464406533
30
0
11
59.339356580775359
21
22.016411819837725
31
0
0
LINE
5
201
100
AcDbEntity
8
0
100
AcDbLine
10
31.622970605436738
20
-121.32326997298513
30
0
11
21.01636888763851
21
-110.71666825518687
31
0
0
LINE
5
202
100
AcDbEntity
8
0
100
AcDbLine
10
31.622970605436755
20
6.5359088488850325
30
0
11
45.481163593106061
21
12.276160334361386
31
0
0
LINE
5
203
100
AcDbEntity
8
0
100
AcDbLine
10
45.481163593106032
20
-127.06352145846147
30
0
11
43.950429863645667
21
-130.7590395885066
31
0
0
LINE
5
204
100
AcDbEntity
8
0
100
AcDbLine
10
31.622970605436738
20
-121.32326997298513
30
0
11
28.794543480690553
21
-124.15169709773127
31
0
0
LINE
5
205
100
AcDbEntity
8
0
100
AcDbLine
10
89.339356580775359
20
-132.80377294393776
30
0
11
89.339356580775359
21
-136.80377294393776
31
0
0
LINE
5
206
100
AcDbEntity
8
0
100
AcDbLine
10
45.481163593106032
20
-127.06352145846141
30
0
11
43.950429863645688
21
-130.75903958850657
31
0
0
LINE
5
207
100
AcDbEntity
8
0
100
AcDbLine
10
-1.070735801112388
20
-72.393680562050037
30
0
11
10.4097671698403
21
-100.11006653738866
31
0
6
DASHED
0
LINE
5
208
100
AcDbEntity
8
0
100
AcDbLine
10
59.339356580775373
20
18.01641181983765
30
0
11
74.339356580775373
21
18.01641181983765
31
0
0
LINE
5
209
100
AcDbEntity
8
0
100
AcDbLine
10
59.339356580775338
20
18.016411819837721
30
0
11
59.339356580775359
21
22.016411819837725
31
0
0
LINE
5
210
100
AcDbEntity
8
0
100
AcDbLine
10
59.339356580775338
20
-132.80377294393782
30
0
11
57.808622851314979
21
-136.49929107398296
31
0
0
LINE
5
211
100
AcDbEntity
8
0
100
AcDbLine
10
31.622970605436738
20
-121.32326997298507
30
0
11
59.339356580775338
21
-132.80377294393776
31
0
6
DASHED
0
LINE
5
212
100
AcDbEntity
8
0
100
AcDbLine
10
74.339356580775345
20
-136.80377294393779
30
0
11
57.808622851314979
21
-136.49929107398296
31
0
0
LINE
5
213
100
AcDbEntity
8
0
100
AcDbLine
10
4.6695156843639474
20
-86.251873549719349
30
0
11
0.97399755431879953
21
-87.7826072791797
31
0
0
LINE
5
214
100
AcDbEntity
8
0
100
AcDbLine
10
275.24711809857018
20
48.911186837403449
30
0
11
290.24711809857018
21
48.911186837403449
31
0
0
LINE
5
215
100
AcDbEntity
8
0
100
AcDbLine
10
59.339356580775338
20
-132.80377294393782
30
0
11
57.808622851314979
21
-136.49929107398296
31
0
0
LINE
5
216
100
AcDbEntity
8
0
100
AcDbLine
10
74.339356580775345
20
-136.80377294393779
30
0
11
57.808622851314979
21
-136.49929107398296
31
0
0
LINE
5
217
100
AcDbEntity
8
0
100
AcDbLine
10
245.24711809857021
20
204.22887472659374
30
0
11
245.24711809857021
21
200.22887472659377
31
0
0
LINE
5
218
100
AcDbEntity
8
0
100
AcDbLine
10
21.01636888763851
20
-110.71666825518687
30
0
11
18.187941762892343
21
-113.54509537993307
31
0
0
LINE
5
219
100
AcDbEntity
8
0
100
AcDbLine
10
4.6695156843639296
20
-86.251873549719349
30
0
11
0.97399755431881729
21
-87.7826072791797
31
0
0
LINE
5
220
100
AcDbEntity
8
0
100
AcDbLine
10
305.24711809857018
20
200.22887472659377
30
0
11
320.24711809857024
21
200.22887472659377
31
0
0
LINE
5
221
100
AcDbEntity
8
0
100
AcDbLine
10
290.24711809857018
20
204.22887472659374
30
0
11
305.24711809857018
21
204.22887472659374
31
0
0
LINE
5
222
100
AcDbEntity
8
0
100
AcDbLine
10
45.481163593106061
20
12.276160334361386
30
0
11
43.950429863645709
21
15.971678464406533
31
0
0
LINE
5
223
100
AcDbEntity
8
0
100
AcDbLine
10
31.622970605436755
20
6.5359088488850325
30
0
11
30.092236875976397
21
10.23142697893018
31
0
0
LINE
5
224
100
AcDbEntity
8
0
100
AcDbLine
10
200.24711809857021
20
204.22887472659374
30
0
11
215.24711809857021
21
204.22887472659374
31
0
0
LINE
5
225
100
AcDbEntity
8
0
100
AcDbLine
10
21.01636888763851
20
-110.71666825518687
30
0
11
18.187941762892343
21
-113.54509537993306
31
0
0
LINE
5
226
100
AcDbEntity
8
0
100
AcDbLine
10
275.24711809857018
20
204.22887472659374
30
0
11
275.24711809857018
21
200.22887472659377
31
0
0
LINE
5
227
100
AcDbEntity
8
0
100
AcDbLine
10
275.24711809857018
20
200.22887472659377
30
0
11
290.24711809857018
21
200.22887472659377
31
0
0
LINE
5
228
100
AcDbEntity
8
0
100
AcDbLine
10
10.4097671698403
20
-100.11006653738866
30
0
11
31.622970605436738
21
-121.32326997298507
31
0
6
DASHED
0
LINE
5
229
100
AcDbEntity
8
0
100
AcDbLine
10
215.24711809857021
20
48.911186837403449
30
0
11
230.24711809857021
21
48.911186837403449
31
0
0
LINE
5
230
100
AcDbEntity
8
0
100
AcDbLine
10
119.88416968086015
20
9.3643359736311549
30
0
11
104.72828329790502
21
15.971678464406459
31
0
0
LINE
5
231
100
AcDbEntity
8
0
100
AcDbLine
10
28.794543480690553
20
-124.15169709773127
30
0
11
43.950429863645667
21
-130.7590395885066
31
0
0
LINE
5
232
100
AcDbEntity
8
0
100
AcDbLine
10
59.339356580775338
20
-132.80377294393782
30
0
11
45.481163593106032
21
-127.06352145846147
31
0
0
LINE
5
233
100
AcDbEntity
8
0
100
AcDbLine
10
130.49077139865835
20
-1.2422657441670593
30
0
11
141.96446412175555
21
-13.146560857251101
31
0
0
LINE
5
234
100
AcDbEntity
8
0
100
AcDbLine
10
215.24711809857021
20
204.22887472659374
30
0
11
215.24711809857021
21
200.22887472659377
31
0
0
LINE
5
235
100
AcDbEntity
8
0
100
AcDbLine
10
89.339356580775373
20
18.01641181983765
30
0
11
90.870090310235724
21
21.711929949882798
31
0
0
LINE
5
236
100
AcDbEntity
8
0
100
AcDbLine
10
74.339356580775373
20
18.01641181983765
30
0
11
74.339356580775373
21
22.01641181983765
31
0
0
LINE
5
237
100
AcDbEntity
8
0
100
AcDbLine
10
215.24711809857021
20
200.22887472659377
30
0
11
230.24711809857021
21
200.22887472659377
31
0
0
LINE
5
238
100
AcDbEntity
8
0
100
AcDbLine
10
185.24711809857021
20
48.911186837403449
30
0
11
200.24711809857021
21
48.911186837403449
31
0
0
LINE
5
239
100
AcDbEntity
8
0
100
AcDbLine
10
138.26894599171038
20
-14.677294586711461
30
0
11
141.96446412175555
21
-13.146560857251101
31
0
0
LINE
5
240
100
AcDbEntity
8
0
100
AcDbLine
10
290.24711809857018
20
200.22887472659377
30
0
11
290.24711809857018
21
204.22887472659374
31
0
0
LINE
5
241
100
AcDbEntity
8
0
100
AcDbLine
10
89.339356580775373
20
18.01641181983765
30
0
11
117.05574255611397
21
6.5359088488849659
31
0
6
DASHED
0
LINE
5
242
100
AcDbEntity
8
0
100
AcDbLine
10
305.24711809857018
20
48.911186837403449
30
0
11
320.24711809857024
21
48.911186837403449
31
0
0
LINE
5
243
100
AcDbEntity
8
0
100
AcDbLine
10
230.24711809857021
20
204.22887472659374
30
0
11
245.24711809857021
21
204.22887472659374
31
0
0
LINE
5
244
100
AcDbEntity
8
0
100
AcDbLine
10
230.24711809857021
20
48.911186837403449
30
0
11
230.24711809857021
21
44.911186837403449
31
0
0
LINE
5
245
100
AcDbEntity
8
0
100
AcDbLine
10
230.24711809857021
20
44.911186837403449
30
0
11
245.24711809857021
21
44.911186837403449
31
0
0
LINE
5
246
100
AcDbEntity
8
0
100
AcDbLine
10
320.24711809857024
20
200.22887472659377
30
0
11
320.24711809857024
21
48.911186837403449
31
0
6
DASHED
0
LINE
5
247
100
AcDbEntity
8
0
100
AcDbLine
10
117.05574255611397
20
6.5359088488849659
30
0
11
119.88416968086015
21
9.3643359736311549
31
0
0
LINE
5
248
100
AcDbEntity
8
0
100
AcDbLine
10
230.24711809857021
20
48.911186837403449
30
0
11
230.24711809857021
21
200.22887472659374
31
0
0
LINE
5
249
100
AcDbEntity
8
0
100
AcDbLine
10
260.24711809857018
20
204.22887472659374
30
0
11
275.24711809857018
21
204.22887472659374
31
0
0
LINE
5
250
100
AcDbEntity
8
0
100
AcDbLine
10
74.339356580775373
20
22.01641181983765
30
0
11
90.870090310235724
21
21.711929949882798
31
0
0
LINE
5
251
100
AcDbEntity
8
0
100
AcDbLine
10
245.24711809857021
20
200.22887472659377
30
0
11
260.24711809857018
21
200.22887472659377
31
0
0
LINE
5
252
100
AcDbEntity
8
0
100
AcDbLine
10
260.24711809857018
20
44.911186837403449
30
0
11
275.24711809857018
21
44.911186837403449
31
0
0
LINE
5
253
100
AcDbEntity
8
0
100
AcDbLine
10
59.339356580775373
20
18.01641181983765
30
0
11
89.339356580775373
21
18.01641181983765
31
0
6
DASHED
0
LINE
5
254
100
AcDbEntity
8
0
100
AcDbLine
10
260.24711809857018
20
200.22887472659377
30
0
11
260.24711809857018
21
204.22887472659374
31
0
0
LINE
5
255
100
AcDbEntity
8
0
100
AcDbLine
10
260.24711809857018
20
48.911186837403449
30
0
11
260.24711809857018
21
44.911186837403449
31
0
0
LINE
5
256
100
AcDbEntity
8
0
100
AcDbLine
10
260.24711809857018
20
48.911186837403449
30
0
11
260.24711809857018
21
200.22887472659374
31
0
0
LINE
5
257
100
AcDbEntity
8
0
100
AcDbLine
10
275.24711809857018
20
44.911186837403449
30
0
11
275.24711809857018
21
48.911186837403449
31
0
0
LINE
5
258
100
AcDbEntity
8
0
100
AcDbLine
10
127.66234427391218
20
-4.0706928689132482
30
0
11
130.49077139865835
21
-1.2422657441670593
31
0
0
LINE
5
259
100
AcDbEntity
8
0
100
AcDbLine
10
290.24711809857018
20
44.911186837403449
30
0
11
305.24711809857018
21
44.911186837403449
31
0
0
LINE
5
260
100
AcDbEntity
8
0
100
AcDbLine
10
215.24711809857021
20
44.911186837403449
30
0
11
215.24711809857021
21
48.911186837403449
31
0
0
LINE
5
261
100
AcDbEntity
8
0
100
AcDbLine
10
230.24711809857021
20
200.22887472659377
30
0
11
230.24711809857021
21
204.22887472659374
31
0
0
LINE
5
262
100
AcDbEntity
8
0
100
AcDbLine
10
200.24711809857021
20
200.22887472659377
30
0
11
200.24711809857021
21
204.22887472659374
31
0
0
LINE
5
263
100
AcDbEntity
8
0
100
AcDbLine
10
103.19754956844466
20
12.276160334361311
30
0
11
104.72828329790502
21
15.971678464406459
31
0
0
LINE
5
264
100
AcDbEntity
8
0
100
AcDbLine
10
290.24711809857018
20
48.911186837403449
30
0
11
290.24711809857018
21
200.22887472659374
31
0
0
LINE
5
265
100
AcDbEntity
8
0
100
AcDbLine
10
74.339356580775373
20
22.01641181983765
30
0
11
90.870090310235724
21
21.711929949882798
31
0
0
LINE
5
266
100
AcDbEntity
8
0
100
AcDbLine
10
320.24711809857024
20
48.911186837403449
30
0
11
320.24711809857024
21
200.22887472659374
31
0
0
LINE
5
267
100
AcDbEntity
8
0
100
AcDbLine
10
89.339356580775373
20
18.01641181983765
30
0
11
90.870090310235724
21
21.711929949882798
31
0
0
LINE
5
268
100
AcDbEntity
8
0
100
AcDbLine
10
117.05574255611397
20
6.5359088488849659
30
0
11
138.26894599171038
21
-14.677294586711461
31
0
6
DASHED
0
LINE
5
269
100
AcDbEntity
8
0
100
AcDbLine
10
200.24711809857021
20
44.911186837403449
30
0
11
215.24711809857021
21
44.911186837403449
31
0
0
LINE
5
270
100
AcDbEntity
8
0
100
AcDbLine
10
305.24711809857018
20
204.22887472659374
30
0
11
305.24711809857018
21
200.22887472659377
31
0
0
LINE
5
271
100
AcDbEntity
8
0
100
AcDbLine
10
200.24711809857021
20
48.911186837403449
30
0
11
200.24711809857021
21
200.22887472659374
31
0
0
LINE
5
272
100
AcDbEntity
8
0
100
AcDbLine
10
185.24711809857021
20
200.22887472659377
30
0
11
200.24711809857021
21
200.22887472659377
31
0
0
LINE
5
273
100
AcDbEntity
8
0
100
AcDbLine
10
200.24711809857021
20
48.911186837403449
30
0
11
200.24711809857021
21
44.911186837403449
31
0
0
LINE
5
274
100
AcDbEntity
8
0
100
AcDbLine
10
290.24711809857018
20
48.911186837403449
30
0
11
290.24711809857018
21
44.911186837403449
31
0
0
LINE
5
275
100
AcDbEntity
8
0
100
AcDbLine
10
305.24711809857018
20
44.911186837403449
30
0
11
305.24711809857018
21
48.911186837403449
31
0
0
LINE
5
276
100
AcDbEntity
8
0
100
AcDbLine
10
245.24711809857021
20
44.911186837403449
30
0
11
245.24711809857021
21
48.911186837403449
31
0
0
LINE
5
277
100
AcDbEntity
8
0
100
AcDbLine
10
117.05574255611397
20
6.5359088488849659
30
0
11
127.66234427391218
21
-4.0706928689132482
31
0
0
LINE
5
278
100
AcDbEntity
8
0
100
AcDbLine
10
89.339356580775373
20
18.01641181983765
30
0
11
103.19754956844466
21
12.276160334361311
31
0
0
LINE
5
279
100
AcDbEntity
8
0
100
AcDbLine
10
245.24711809857021
20
48.911186837403449
30
0
11
260.24711809857018
21
48.911186837403449
31
0
0
LINE
5
280
100
AcDbEntity
8
0
100
AcDbLine
10
21.016368887638535
20
-4.0706928689132393
30
0
11
-1.070735801112388
21
-72.393680562050037
31
0
6
DASHED
0
LINE
5
281
100
AcDbEntity
8
0
100
AcDbLine
10
-1.070735801112388
20
-72.393680562050037
30
0
11
3.346660964873589
21
-58.729157794977027
31
0
0
LINE
5
282
100
AcDbEntity
8
0
100
AcDbLine
10
21.016368887638528
20
-4.0706928689132127
30
0
11
16.598972121652569
21
-17.735215635986229
31
0
0
LINE
5
283
100
AcDbEntity
8
0
100
AcDbLine
10
-1.070735801112388
20
-72.393680562050037
30
0
11
-4.8767975155218934
21
-71.163276471474035
31
0
0
LINE
5
284
100
AcDbEntity
8
0
100
AcDbLine
10
-4.8767975155218934
20
-71.163276471474035
30
0
11
0.97399755431881729
21
-87.7826072791797
31
0
0
LINE
5
285
100
AcDbEntity
8
0
100
AcDbLine
10
21.016368887638535
20
-4.0706928689132393
30
0
11
17.210307173229033
21
-2.840288778337233
31
0
0
LINE
5
286
100
AcDbEntity
8
0
100
AcDbLine
10
17.210307173229033
20
-2.840288778337233
30
0
11
30.092236875976397
21
10.23142697893018
31
0
0
LINE
5
287
100
AcDbEntity
8
0
100
AcDbLine
10
3.346660964873589
20
-58.729157794977027
30
0
11
-0.45940074953591647
21
-57.498753704401018
31
0
0
LINE
5
288
100
AcDbEntity
8
0
100
AcDbLine
10
-0.45940074953591647
20
-57.498753704401018
30
0
11
3.9579960164500605
21
-43.834230937328009
31
0
0
LINE
5
289
100
AcDbEntity
8
0
100
AcDbLine
10
3.9579960164500605
20
-43.834230937328009
30
0
11
7.764057730859566
21
-45.064635027904018
31
0
0
LINE
5
290
100
AcDbEntity
8
0
100
AcDbLine
10
-0.45940074953591647
20
-57.498753704401018
30
0
11
3.9579960164500605
21
-43.834230937328009
31
0
0
LINE
5
291
100
AcDbEntity
8
0
100
AcDbLine
10
3.9579960164500605
20
-43.834230937328009
30
0
11
7.764057730859566
21
-45.064635027904018
31
0
0
LINE
5
292
100
AcDbEntity
8
0
100
AcDbLine
10
3.346660964873589
20
-58.729157794977027
30
0
11
-0.45940074953591647
21
-57.498753704401018
31
0
0
LINE
5
293
100
AcDbEntity
8
0
100
AcDbLine
10
-1.070735801112388
20
-72.393680562050037
30
0
11
3.346660964873589
21
-58.729157794977027
31
0
0
LINE
5
294
100
AcDbEntity
8
0
100
AcDbLine
10
8.3755136412571396
20
-30.169334312483112
30
0
11
12.792910407243063
21
-16.504811545410242
31
0
0
LINE
5
295
100
AcDbEntity
8
0
100
AcDbLine
10
12.792910407243063
20
-16.504811545410242
30
0
11
16.598972121652569
21
-17.735215635986229
31
0
0
LINE
5
296
100
AcDbEntity
8
0
100
AcDbLine
10
12.18157535566661
20
-31.399738403059104
30
0
11
8.3755136412571396
21
-30.169334312483112
31
0
0
LINE
5
297
100
AcDbEntity
8
0
100
AcDbLine
10
7.7641785896807036
20
-45.064261170131978
30
0
11
12.18157535566661
21
-31.399738403059104
31
0
0
LINE
5
298
100
AcDbEntity
8
0
100
AcDbLine
10
185.24711809857021
20
200.22887472659377
30
0
11
185.24711809857021
21
48.911186837403449
31
0
0
LINE
5
299
100
AcDbEntity
8
0
100
AcDbLine
10
185.24711809857021
20
200.22887472659377
30
0
11
185.24711809857021
21
204.22887472659374
31
0
0
LINE
5
300
100
AcDbEntity
8
0
100
AcDbLine
10
185.24711809857021
20
204.22887472659374
30
0
11
170.88611809857019
21
204.22887472659374
31
0
0
LINE
5
301
100
AcDbEntity
8
0
100
AcDbLine
10
170.88611809857019
20
204.22887472659374
30
0
11
170.88611809857019
21
200.22887472659377
31
0
0
LINE
5
302
100
AcDbEntity
8
0
100
AcDbLine
10
156.5251180985702
20
200.22887472659377
30
0
11
170.88611809857019
21
200.22887472659377
31
0
0
LINE
5
303
100
AcDbEntity
8
0
100
AcDbLine
10
142.16411809857021
20
204.22887472659374
30
0
11
142.16411809857021
21
200.22887472659377
31
0
0
LINE
5
304
100
AcDbEntity
8
0
100
AcDbLine
10
156.5251180985702
20
204.22887472659374
30
0
11
142.16411809857021
21
204.22887472659374
31
0
0
LINE
5
305
100
AcDbEntity
8
0
100
AcDbLine
10
156.5251180985702
20
200.22887472659377
30
0
11
156.5251180985702
21
204.22887472659374
31
0
0
LINE
5
306
100
AcDbEntity
8
0
100
AcDbLine
10
127.80311809857022
20
200.22887472659377
30
0
11
142.16411809857021
21
200.22887472659377
31
0
0
LINE
5
307
100
AcDbEntity
8
0
100
AcDbLine
10
127.80311809857028
20
204.22887472659383
30
0
11
113.44211809857029
21
204.22887472659383
31
0
0
LINE
5
308
100
AcDbEntity
8
0
100
AcDbLine
10
113.44211809857029
20
204.22887472659383
30
0
11
113.44211809857029
21
200.22887472659386
31
0
0
LINE
5
309
100
AcDbEntity
8
0
100
AcDbLine
10
127.80311809857022
20
200.22887472659377
30
0
11
127.80311809857028
21
204.22887472659383
31
0
0
LINE
5
310
100
AcDbEntity
8
0
100
AcDbLine
10
127.80311809857028
20
44.911186837403378
30
0
11
113.44211809857029
21
44.911186837403378
31
0
0
LINE
5
311
100
AcDbEntity
8
0
100
AcDbLine
10
127.80311809857022
20
48.911186837403434
30
0
11
127.80311809857028
21
44.911186837403378
31
0
0
LINE
5
312
100
AcDbEntity
8
0
100
AcDbLine
10
156.5251180985702
20
44.911186837403449
30
0
11
142.16411809857021
21
44.911186837403449
31
0
0
LINE
5
313
100
AcDbEntity
8
0
100
AcDbLine
10
185.24711809857021
20
48.911186837403434
30
0
11
185.24711809857021
21
44.911186837403449
31
0
0
LINE
5
314
100
AcDbEntity
8
0
100
AcDbLine
10
142.16411809857021
20
44.911186837403449
30
0
11
142.16411809857021
21
48.911186837403434
31
0
0
LINE
5
315
100
AcDbEntity
8
0
100
AcDbLine
10
170.88611809857025
20
44.911186837403449
30
0
11
170.88611809857025
21
48.911186837403434
31
0
0
LINE
5
316
100
AcDbEntity
8
0
100
AcDbLine
10
156.5251180985702
20
48.911186837403434
30
0
11
156.5251180985702
21
44.911186837403449
31
0
0
LINE
5
317
100
AcDbEntity
8
0
100
AcDbLine
10
113.44211809857029
20
44.911186837403378
30
0
11
113.44211809857029
21
48.911186837403363
31
0
0
LINE
5
318
100
AcDbEntity
8
0
100
AcDbLine
10
127.80311809857022
20
48.911186837403434
30
0
11
142.16411809857021
21
48.911186837403434
31
0
0
LINE
5
319
100
AcDbEntity
8
0
100
AcDbLine
10
185.24711809857021
20
44.911186837403449
30
0
11
170.88611809857025
21
44.911186837403449
31
0
0
LINE
5
320
100
AcDbEntity
8
0
100
AcDbLine
10
156.5251180985702
20
48.911186837403434
30
0
11
170.88611809857025
21
48.911186837403434
31
0
0
LINE
5
321
100
AcDbEntity
8
0
100
AcDbLine
10
113.44211809857029
20
200.22887472659386
30
0
11
113.44211809857029
21
48.911186837403363
31
0
0
LINE
5
322
100
AcDbEntity
8
0
100
AcDbLine
10
320.24711809857024
20
48.911186837403449
30
0
11
320.24711809857024
21
44.911186837403449
31
0
0
LINE
5
323
100
AcDbEntity
8
0
100
AcDbLine
10
320.24711809857024
20
44.911186837403449
30
0
11
324.24711809857024
21
44.911186837403449
31
0
0
LINE
5
324
100
AcDbEntity
8
0
100
AcDbLine
10
324.24711809857024
20
44.911186837403449
30
0
11
324.24711809857024
21
48.911186837403449
31
0
0
LINE
5
325
100
AcDbEntity
8
0
100
AcDbLine
10
320.24711809857024
20
204.22887472659374
30
0
11
324.2471180985703
21
204.22887472659374
31
0
0
LINE
5
326
100
AcDbEntity
8
0
100
AcDbLine
10
324.2471180985703
20
204.22887472659374
30
0
11
324.2471180985703
21
200.22887472659374
31
0
0
LINE
5
327
100
AcDbEntity
8
0
100
AcDbLine
10
320.24711809857024
20
200.22887472659374
30
0
11
320.24711809857024
21
204.22887472659374
31
0
0
LINE
5
328
100
AcDbEntity
8
0
100
AcDbLine
10
324.2471180985703
20
200.22887472659374
30
0
11
324.24711809857024
21
48.911186837403449
31
0
0
LINE
5
329
100
AcDbEntity
8
0
100
AcDbLine
10
149.34461809857021
20
204.22887472659374
30
0
11
149.34461809857021
21
44.911186837403449
31
0
6
DASHED
0
LINE
5
330
100
AcDbEntity
8
0
100
AcDbLine
10
-25.557881901429891
20
204.22887472659374
30
0
11
-25.557881901429891
21
200.22887472659374
31
0
0
LINE
5
331
100
AcDbEntity
8
0
100
AcDbLine
10
53.442118098570219
20
200.22887472659377
30
0
11
38.442118098570219
21
200.22887472659377
31
0
0
LINE
5
332
100
AcDbEntity
8
0
100
AcDbLine
10
-6.5578819014297807
20
200.22887472659377
30
0
11
-21.557881901429834
21
200.22887472659377
31
0
0
LINE
5
333
100
AcDbEntity
8
0
100
AcDbLine
10
8.4421180985702193
20
204.22887472659374
30
0
11
-6.5578819014297807
21
204.22887472659374
31
0
0
LINE
5
334
100
AcDbEntity
8
0
100
AcDbLine
10
113.44211809857022
20
200.22887472659377
30
0
11
98.442118098570219
21
200.22887472659377
31
0
0
LINE
5
335
100
AcDbEntity
8
0
100
AcDbLine
10
68.442118098570219
20
204.22887472659374
30
0
11
53.442118098570219
21
204.22887472659374
31
0
0
LINE
5
336
100
AcDbEntity
8
0
100
AcDbLine
10
83.442118098570219
20
204.22887472659374
30
0
11
83.442118098570219
21
200.22887472659377
31
0
0
LINE
5
337
100
AcDbEntity
8
0
100
AcDbLine
10
-21.557881901429834
20
200.22887472659374
30
0
11
-21.557881901429834
21
204.22887472659374
31
0
0
LINE
5
338
100
AcDbEntity
8
0
100
AcDbLine
10
23.442118098570219
20
48.911186837403449
30
0
11
8.4421180985702193
21
48.911186837403449
31
0
0
LINE
5
339
100
AcDbEntity
8
0
100
AcDbLine
10
-25.55788190142982
20
44.911186837403449
30
0
11
-25.55788190142982
21
48.911186837403449
31
0
0
LINE
5
340
100
AcDbEntity
8
0
100
AcDbLine
10
38.442118098570219
20
200.22887472659377
30
0
11
38.442118098570219
21
204.22887472659374
31
0
0
LINE
5
341
100
AcDbEntity
8
0
100
AcDbLine
10
23.442118098570219
20
200.22887472659377
30
0
11
8.4421180985702193
21
200.22887472659377
31
0
0
LINE
5
342
100
AcDbEntity
8
0
100
AcDbLine
10
-21.557881901429834
20
204.22887472659374
30
0
11
-25.557881901429891
21
204.22887472659374
31
0
0
LINE
5
343
100
AcDbEntity
8
0
100
AcDbLine
10
98.442118098570219
20
48.911186837403449
30
0
11
98.442118098570219
21
200.22887472659374
31
0
0
LINE
5
344
100
AcDbEntity
8
0
100
AcDbLine
10
-21.557881901429834
20
48.911186837403449
30
0
11
-21.557881901429834
21
44.911186837403449
31
0
0
LINE
5
345
100
AcDbEntity
8
0
100
AcDbLine
10
68.442118098570219
20
48.911186837403449
30
0
11
68.442118098570219
21
44.911186837403449
31
0
0
LINE
5
346
100
AcDbEntity
8
0
100
AcDbLine
10
98.442118098570219
20
200.22887472659377
30
0
11
98.442118098570219
21
204.22887472659374
31
0
0
LINE
5
347
100
AcDbEntity
8
0
100
AcDbLine
10
83.442118098570219
20
44.911186837403449
30
0
11
83.442118098570219
21
48.911186837403449
31
0
0
LINE
5
348
100
AcDbEntity
8
0
100
AcDbLine
10
38.442118098570219
20
48.911186837403449
30
0
11
38.442118098570219
21
44.911186837403449
31
0
0
LINE
5
349
100
AcDbEntity
8
0
100
AcDbLine
10
83.442118098570219
20
200.22887472659377
30
0
11
68.442118098570219
21
200.22887472659377
31
0
0
LINE
5
350
100
AcDbEntity
8
0
100
AcDbLine
10
98.442118098570219
20
48.911186837403449
30
0
11
98.442118098570219
21
44.911186837403449
31
0
0
LINE
5
351
100
AcDbEntity
8
0
100
AcDbLine
10
53.442118098570219
20
44.911186837403449
30
0
11
53.442118098570219
21
48.911186837403449
31
0
0
LINE
5
352
100
AcDbEntity
8
0
100
AcDbLine
10
83.442118098570219
20
48.911186837403449
30
0
11
68.442118098570219
21
48.911186837403449
31
0
0
LINE
5
353
100
AcDbEntity
8
0
100
AcDbLine
10
-6.5578819014297807
20
44.911186837403449
30
0
11
-6.5578819014297807
21
48.911186837403449
31
0
0
LINE
5
354
100
AcDbEntity
8
0
100
AcDbLine
10
-6.5578819014297807
20
204.22887472659374
30
0
11
-6.5578819014297807
21
200.22887472659377
31
0
0
LINE
5
355
100
AcDbEntity
8
0
100
AcDbLine
10
53.442118098570219
20
48.911186837403449
30
0
11
38.442118098570219
21
48.911186837403449
31
0
0
LINE
5
356
100
AcDbEntity
8
0
100
AcDbLine
10
68.442118098570219
20
200.22887472659377
30
0
11
68.442118098570219
21
204.22887472659374
31
0
0
LINE
5
357
100
AcDbEntity
8
0
100
AcDbLine
10
-6.5578819014297807
20
48.911186837403449
30
0
11
-21.557881901429834
21
48.911186837403449
31
0
0
LINE
5
358
100
AcDbEntity
8
0
100
AcDbLine
10
68.442118098570219
20
48.911186837403449
30
0
11
68.442118098570219
21
200.22887472659374
31
0
0
LINE
5
359
100
AcDbEntity
8
0
100
AcDbLine
10
-21.557881901429834
20
200.22887472659377
30
0
11
-21.557881901429834
21
48.911186837403449
31
0
6
DASHED
0
LINE
5
360
100
AcDbEntity
8
0
100
AcDbLine
10
23.442118098570219
20
44.911186837403449
30
0
11
23.442118098570219
21
48.911186837403449
31
0
0
LINE
5
361
100
AcDbEntity
8
0
100
AcDbLine
10
8.4421180985702193
20
48.911186837403449
30
0
11
8.4421180985702193
21
200.22887472659374
31
0
0
LINE
5
362
100
AcDbEntity
8
0
100
AcDbLine
10
38.442118098570219
20
204.22887472659374
30
0
11
23.442118098570219
21
204.22887472659374
31
0
0
LINE
5
363
100
AcDbEntity
8
0
100
AcDbLine
10
38.442118098570219
20
48.911186837403449
30
0
11
38.442118098570219
21
200.22887472659374
31
0
0
LINE
5
364
100
AcDbEntity
8
0
100
AcDbLine
10
-21.557881901429834
20
48.911186837403449
30
0
11
-21.557881901429834
21
200.22887472659374
31
0
0
LINE
5
365
100
AcDbEntity
8
0
100
AcDbLine
10
8.4421180985702193
20
48.911186837403449
30
0
11
8.4421180985702193
21
44.911186837403449
31
0
0
LINE
5
366
100
AcDbEntity
8
0
100
AcDbLine
10
-25.557881901429891
20
200.22887472659374
30
0
11
-25.55788190142982
21
48.911186837403449
31
0
0
LINE
5
367
100
AcDbEntity
8
0
100
AcDbLine
10
98.442118098570219
20
204.22887472659374
30
0
11
83.442118098570219
21
204.22887472659374
31
0
0
LINE
5
368
100
AcDbEntity
8
0
100
AcDbLine
10
23.442118098570219
20
204.22887472659374
30
0
11
23.442118098570219
21
200.22887472659377
31
0
0
LINE
5
369
100
AcDbEntity
8
0
100
AcDbLine
10
8.4421180985702193
20
200.22887472659377
30
0
11
8.4421180985702193
21
204.22887472659374
31
0
0
LINE
5
370
100
AcDbEntity
8
0
100
AcDbLine
10
68.442118098570219
20
44.911186837403449
30
0
11
53.442118098570219
21
44.911186837403449
31
0
0
LINE
5
371
100
AcDbEntity
8
0
100
AcDbLine
10
53.442118098570219
20
204.22887472659374
30
0
11
53.442118098570219
21
200.22887472659377
31
0
0
LINE
5
372
100
AcDbEntity
8
0
100
AcDbLine
10
98.442118098570219
20
44.911186837403449
30
0
11
83.442118098570219
21
44.911186837403449
31
0
0
LINE
5
373
100
AcDbEntity
8
0
100
AcDbLine
10
8.4421180985702193
20
44.911186837403449
30
0
11
-6.5578819014297807
21
44.911186837403449
31
0
0
LINE
5
374
100
AcDbEntity
8
0
100
AcDbLine
10
-21.557881901429834
20
44.911186837403449
30
0
11
-25.55788190142982
21
44.911186837403449
31
0
0
LINE
5
375
100
AcDbEntity
8
0
100
AcDbLine
10
38.442118098570219
20
44.911186837403449
30
0
11
23.442118098570219
21
44.911186837403449
31
0
0
LINE
5
376
100
AcDbEntity
8
0
100
AcDbLine
10
113.44211809857022
20
48.911186837403449
30
0
11
98.442118098570219
21
48.911186837403449
31
0
0
LINE
5
377
100
AcDbEntity
8
0
100
AcDbLine
10
-25.557881901429855
20
124.5700307819986
30
0
11
324.2471180985703
21
124.5700307819986
31
0
6
DASHED
0
LINE
5
378
100
AcDbEntity
8
0
100
AcDbLine
10
138.26894599171038
20
-14.677294586711461
30
0
11
139.79967972117078
21
-18.372812716756609
31
0
0
LINE
5
379
100
AcDbEntity
8
0
100
AcDbLine
10
139.79967972117078
20
-18.372812716756609
30
0
11
143.49519785121589
21
-16.842078987296244
31
0
0
LINE
5
380
100
AcDbEntity
8
0
100
AcDbLine
10
103.19754956844464
20
-127.06352145846142
30
0
11
106.8930676984898
21
-125.53278772900107
31
0
0
LINE
5
381
100
AcDbEntity
8
0
100
AcDbLine
10
106.8930676984898
20
-125.53278772900107
30
0
11
108.42380142795015
21
-129.22830585904623
31
0
0
LINE
5
382
100
AcDbEntity
8
0
100
AcDbLine
10
143.49519785121589
20
-16.842078987296244
30
0
11
108.42380142795015
21
-129.22830585904623
31
0
0
LINE
5
383
100
AcDbEntity
8
0
100
AcDbLine
10
149.54059925046408
20
-57.498753704401018
30
0
11
153.95799601645007
21
-43.834230937328009
31
0
0
LINE
5
384
100
AcDbEntity
8
0
100
AcDbLine
10
181.62297060543676
20
6.5359088488850325
30
0
11
180.0922368759764
21
10.23142697893018
31
0
0
LINE
5
385
100
AcDbEntity
8
0
100
AcDbLine
10
209.33935658077536
20
18.01641181983765
30
0
11
181.62297060543676
21
6.5359088488849615
31
0
6
DASHED
0
LINE
5
386
100
AcDbEntity
8
0
100
AcDbLine
10
209.33935658077533
20
-132.80377294393782
30
0
11
207.80862285131496
21
-136.49929107398296
31
0
0
LINE
5
387
100
AcDbEntity
8
0
100
AcDbLine
10
153.34666096487359
20
-58.729157794977027
30
0
11
149.54059925046408
21
-57.498753704401018
31
0
0
LINE
5
388
100
AcDbEntity
8
0
100
AcDbLine
10
171.01636888763849
20
-110.71666825518687
30
0
11
168.18794176289234
21
-113.54509537993306
31
0
0
LINE
5
389
100
AcDbEntity
8
0
100
AcDbLine
10
224.33935658077536
20
18.01641181983765
30
0
11
224.33935658077536
21
22.01641181983765
31
0
0
LINE
5
390
100
AcDbEntity
8
0
100
AcDbLine
10
224.33935658077533
20
-136.80377294393779
30
0
11
207.80862285131496
21
-136.49929107398296
31
0
0
LINE
5
391
100
AcDbEntity
8
0
100
AcDbLine
10
153.34666096487359
20
-58.729157794977027
30
0
11
149.54059925046408
21
-57.498753704401018
31
0
0
LINE
5
392
100
AcDbEntity
8
0
100
AcDbLine
10
160.40976716984031
20
-100.11006653738866
30
0
11
181.62297060543671
21
-121.32326997298507
31
0
6
DASHED
0
LINE
5
393
100
AcDbEntity
8
0
100
AcDbLine
10
160.40976716984031
20
-100.11006653738868
30
0
11
156.71424903979516
21
-101.64080026684903
31
0
0
LINE
5
394
100
AcDbEntity
8
0
100
AcDbLine
10
181.62297060543671
20
-121.32326997298513
30
0
11
178.79454348069055
21
-124.15169709773127
31
0
0
LINE
5
395
100
AcDbEntity
8
0
100
AcDbLine
10
193.95042986364572
20
15.971678464406533
30
0
11
209.33935658077536
21
22.016411819837725
31
0
0
LINE
5
396
100
AcDbEntity
8
0
100
AcDbLine
10
145.1232024844781
20
-71.163276471474035
30
0
11
150.97399755431883
21
-87.7826072791797
31
0
0
LINE
5
397
100
AcDbEntity
8
0
100
AcDbLine
10
148.92926419888761
20
-72.393680562050037
30
0
11
145.1232024844781
21
-71.163276471474035
31
0
0
LINE
5
398
100
AcDbEntity
8
0
100
AcDbLine
10
168.18794176289234
20
-113.54509537993307
30
0
11
156.71424903979516
21
-101.64080026684903
31
0
0
LINE
5
399
100
AcDbEntity
8
0
100
AcDbLine
10
181.62297060543671
20
-121.32326997298513
30
0
11
171.01636888763849
21
-110.71666825518687
31
0
0
LINE
5
400
100
AcDbEntity
8
0
100
AcDbLine
10
195.48116359310603
20
-127.06352145846141
30
0
11
193.9504298636457
21
-130.75903958850657
31
0
0
LINE
5
401
100
AcDbEntity
8
0
100
AcDbLine
10
167.21030717322904
20
-2.840288778337233
30
0
11
180.0922368759764
21
10.23142697893018
31
0
0
LINE
5
402
100
AcDbEntity
8
0
100
AcDbLine
10
181.62297060543671
20
-121.32326997298507
30
0
11
209.33935658077533
21
-132.80377294393776
31
0
6
DASHED
0
LINE
5
403
100
AcDbEntity
8
0
100
AcDbLine
10
154.66951568436394
20
-86.251873549719349
30
0
11
150.9739975543188
21
-87.7826072791797
31
0
0
LINE
5
404
100
AcDbEntity
8
0
100
AcDbLine
10
224.33935658077536
20
-132.80377294393776
30
0
11
224.33935658077536
21
-136.80377294393776
31
0
0
LINE
5
405
100
AcDbEntity
8
0
100
AcDbLine
10
162.79291040724306
20
-16.504811545410242
30
0
11
166.59897212165254
21
-17.735215635986229
31
0
0
LINE
5
406
100
AcDbEntity
8
0
100
AcDbLine
10
160.40976716984031
20
-100.11006653738868
30
0
11
154.66951568436394
21
-86.251873549719349
31
0
0
LINE
5
407
100
AcDbEntity
8
0
100
AcDbLine
10
181.62297060543676
20
6.5359088488850325
30
0
11
195.48116359310603
21
12.276160334361386
31
0
0
LINE
5
408
100
AcDbEntity
8
0
100
AcDbLine
10
153.95799601645007
20
-43.834230937328009
30
0
11
157.76405773085958
21
-45.064635027904018
31
0
0
LINE
5
409
100
AcDbEntity
8
0
100
AcDbLine
10
157.76417858968071
20
-45.064261170131978
30
0
11
162.18157535566661
21
-31.399738403059104
31
0
0
LINE
5
410
100
AcDbEntity
8
0
100
AcDbLine
10
209.33935658077536
20
18.01641181983765
30
0
11
224.33935658077536
21
18.01641181983765
31
0
0
LINE
5
411
100
AcDbEntity
8
0
100
AcDbLine
10
195.48116359310603
20
12.276160334361386
30
0
11
193.95042986364572
21
15.971678464406533
31
0
0
LINE
5
412
100
AcDbEntity
8
0
100
AcDbLine
10
209.33935658077533
20
-132.80377294393782
30
0
11
207.80862285131496
21
-136.49929107398296
31
0
0
LINE
5
413
100
AcDbEntity
8
0
100
AcDbLine
10
178.79454348069055
20
-124.15169709773127
30
0
11
193.95042986364564
21
-130.7590395885066
31
0
0
LINE
5
414
100
AcDbEntity
8
0
100
AcDbLine
10
224.33935658077533
20
-136.80377294393779
30
0
11
207.80862285131496
21
-136.49929107398296
31
0
0
LINE
5
415
100
AcDbEntity
8
0
100
AcDbLine
10
209.33935658077533
20
-132.80377294393782
30
0
11
195.48116359310603
21
-127.06352145846147
31
0
0
LINE
5
416
100
AcDbEntity
8
0
100
AcDbLine
10
171.01636888763849
20
-110.71666825518687
30
0
11
168.18794176289234
21
-113.54509537993307
31
0
0
LINE
5
417
100
AcDbEntity
8
0
100
AcDbLine
10
154.66951568436394
20
-86.251873549719349
30
0
11
150.97399755431883
21
-87.7826072791797
31
0
0
LINE
5
418
100
AcDbEntity
8
0
100
AcDbLine
10
195.48116359310603
20
-127.06352145846147
30
0
11
193.95042986364564
21
-130.7590395885066
31
0
0
LINE
5
419
100
AcDbEntity
8
0
100
AcDbLine
10
149.54059925046408
20
-57.498753704401018
30
0
11
153.95799601645007
21
-43.834230937328009
31
0
0
LINE
5
420
100
AcDbEntity
8
0
100
AcDbLine
10
254.72828329790502
20
-130.75903958850657
30
0
11
239.33935658077536
21
-136.80377294393776
31
0
0
LINE
5
421
100
AcDbEntity
8
0
100
AcDbLine
10
253.19754956844463
20
-127.06352145846142
30
0
11
254.72828329790502
21
-130.75903958850657
31
0
0
LINE
5
422
100
AcDbEntity
8
0
100
AcDbLine
10
209.33935658077536
20
18.01641181983765
30
0
11
239.33935658077536
21
18.01641181983765
31
0
6
DASHED
0
LINE
5
423
100
AcDbEntity
8
0
100
AcDbLine
10
239.33935658077536
20
-132.80377294393782
30
0
11
224.33935658077533
21
-132.80377294393782
31
0
0
LINE
5
424
100
AcDbEntity
8
0
100
AcDbLine
10
253.19754956844463
20
-127.06352145846142
30
0
11
256.8930676984898
21
-125.53278772900107
31
0
0
LINE
5
425
100
AcDbEntity
8
0
100
AcDbLine
10
293.49519785121589
20
-16.842078987296244
30
0
11
258.42380142795014
21
-129.22830585904623
31
0
0
LINE
5
426
100
AcDbEntity
8
0
100
AcDbLine
10
209.33935658077533
20
18.016411819837721
30
0
11
209.33935658077536
21
22.016411819837725
31
0
0
LINE
5
427
100
AcDbEntity
8
0
100
AcDbLine
10
224.33935658077533
20
-132.80377294393782
30
0
11
224.33935658077533
21
-136.80377294393779
31
0
0
LINE
5
428
100
AcDbEntity
8
0
100
AcDbLine
10
153.95799601645007
20
-43.834230937328009
30
0
11
157.76405773085958
21
-45.064635027904018
31
0
0
LINE
5
429
100
AcDbEntity
8
0
100
AcDbLine
10
148.92926419888761
20
-72.393680562050037
30
0
11
160.40976716984031
21
-100.11006653738866
31
0
6
DASHED
0
LINE
5
430
100
AcDbEntity
8
0
100
AcDbLine
10
171.01636888763852
20
-4.0706928689132393
30
0
11
167.21030717322904
21
-2.840288778337233
31
0
0
LINE
5
431
100
AcDbEntity
8
0
100
AcDbLine
10
224.33935658077536
20
22.01641181983765
30
0
11
240.8700903102357
21
21.711929949882819
31
0
0
LINE
5
432
100
AcDbEntity
8
0
100
AcDbLine
10
239.33935658077536
20
18.01641181983765
30
0
11
267.05574255611396
21
6.5359088488849659
31
0
6
DASHED
0
LINE
5
433
100
AcDbEntity
8
0
100
AcDbLine
10
158.37551364125713
20
-30.169334312483112
30
0
11
162.79291040724306
21
-16.504811545410242
31
0
0
LINE
5
434
100
AcDbEntity
8
0
100
AcDbLine
10
253.19754956844463
20
12.276160334361336
30
0
11
254.72828329790502
21
15.971678464406484
31
0
0
LINE
5
435
100
AcDbEntity
8
0
100
AcDbLine
10
256.8930676984898
20
-125.53278772900107
30
0
11
258.42380142795014
21
-129.22830585904623
31
0
0
LINE
5
436
100
AcDbEntity
8
0
100
AcDbLine
10
239.33935658077536
20
18.01641181983765
30
0
11
253.19754956844463
21
12.276160334361336
31
0
0
LINE
5
437
100
AcDbEntity
8
0
100
AcDbLine
10
269.88416968086017
20
9.3643359736311549
30
0
11
254.72828329790502
21
15.971678464406484
31
0
0
LINE
5
438
100
AcDbEntity
8
0
100
AcDbLine
10
267.05574255611396
20
6.5359088488849659
30
0
11
277.6623442739122
21
-4.0706928689132482
31
0
0
LINE
5
439
100
AcDbEntity
8
0
100
AcDbLine
10
267.05574255611396
20
6.5359088488849659
30
0
11
269.88416968086017
21
9.3643359736311549
31
0
0
LINE
5
440
100
AcDbEntity
8
0
100
AcDbLine
10
239.33935658077536
20
18.01641181983765
30
0
11
240.87009031023572
21
21.711929949882798
31
0
0
LINE
5
441
100
AcDbEntity
8
0
100
AcDbLine
10
280.49077139865835
20
-1.2422657441670593
30
0
11
291.96446412175555
21
-13.146560857251101
31
0
0
LINE
5
442
100
AcDbEntity
8
0
100
AcDbLine
10
289.79967972117078
20
-18.372812716756609
30
0
11
293.49519785121589
21
-16.842078987296244
31
0
0
LINE
5
443
100
AcDbEntity
8
0
100
AcDbLine
10
267.05574255611396
20
6.5359088488849659
30
0
11
288.26894599171044
21
-14.677294586711461
31
0
6
DASHED
0
LINE
5
444
100
AcDbEntity
8
0
100
AcDbLine
10
239.33935658077536
20
18.016411819837671
30
0
11
240.8700903102357
21
21.711929949882819
31
0
0
LINE
5
445
100
AcDbEntity
8
0
100
AcDbLine
10
288.26894599171044
20
-14.677294586711461
30
0
11
291.96446412175555
21
-13.146560857251101
31
0
0
LINE
5
446
100
AcDbEntity
8
0
100
AcDbLine
10
288.26894599171044
20
-14.677294586711461
30
0
11
289.79967972117078
21
-18.372812716756609
31
0
0
LINE
5
447
100
AcDbEntity
8
0
100
AcDbLine
10
171.01636888763852
20
-4.0706928689132127
30
0
11
166.59897212165254
21
-17.735215635986229
31
0
0
LINE
5
448
100
AcDbEntity
8
0
100
AcDbLine
10
162.18157535566661
20
-31.399738403059104
30
0
11
158.37551364125713
21
-30.169334312483112
31
0
0
LINE
5
449
100
AcDbEntity
8
0
100
AcDbLine
10
148.92926419888761
20
-72.393680562050037
30
0
11
153.34666096487359
21
-58.729157794977027
31
0
0
LINE
5
450
100
AcDbEntity
8
0
100
AcDbLine
10
148.92926419888761
20
-72.393680562050037
30
0
11
153.34666096487359
21
-58.729157794977027
31
0
0
LINE
5
451
100
AcDbEntity
8
0
100
AcDbLine
10
195.48116359310603
20
12.276160334361306
30
0
11
193.95042986364572
21
15.971678464406454
31
0
0
LINE
5
452
100
AcDbEntity
8
0
100
AcDbLine
10
209.33935658077533
20
-132.80377294393776
30
0
11
239.33935658077536
21
-132.80377294393776
31
0
6
DASHED
0
LINE
5
453
100
AcDbEntity
8
0
100
AcDbLine
10
277.6623442739122
20
-4.0706928689132482
30
0
11
280.49077139865835
21
-1.2422657441670593
31
0
0
LINE
5
454
100
AcDbEntity
8
0
100
AcDbLine
10
239.33935658077536
20
-132.80377294393776
30
0
11
239.33935658077536
21
-136.80377294393776
31
0
0
LINE
5
455
100
AcDbEntity
8
0
100
AcDbLine
10
224.33935658077536
20
22.01641181983765
30
0
11
240.87009031023572
21
21.711929949882798
31
0
0
LINE
5
456
100
AcDbEntity
8
0
100
AcDbLine
10
171.01636888763852
20
-4.0706928689132393
30
0
11
148.92926419888761
21
-72.393680562050037
31
0
6
DASHED
0
ENDSEC
0
SECTION
2
OBJECTS
0
DICTIONARY
5
C
100
AcDbDictionary
3
ACAD_GROUP
350
D
3
ACAD_MLINESTYLE
350
17
0
DICTIONARY
5
D
100
AcDbDictionary
0
DICTIONARY
5
1A
330
C
100
AcDbDictionary
0
DICTIONARY
5
17
100
AcDbDictionary
0
ENDSEC
0
EOF
